<svg width="333.4" height="333.4" xmlns="http://www.w3.org/2000/svg" xml:space="preserve" version="1.1">

 <g>
  <title>Layer 1</title>
  <path id="svg_1" fill="#157CBA" d="m15.1,88.2c0,0 2.7,-70.7 80.4,-68.4s208.6,-0.8 221.7,76.6c13.1,77.4 -84.3,222.8 -162.9,222.6c-67.8,-0.2 -143.4,-125.8 -139.2,-230.8z" class="st17"/>
  <g id="svg_2">
   <g id="svg_3">
    <path id="svg_4" fill="#FFFFFF" d="m253.8,223.8l0,0l0,0l0,-63.9c0,-31.3 -6.7,-55.4 -43.3,-55.4c-17.6,0 -29.4,9.6 -34.2,18.8l-0.5,0l0,-15.9l-34.7,0l0,116.4l36.1,0l0,-57.6c0,-15.2 2.9,-29.8 21.7,-29.8c18.5,0 18.8,17.3 18.8,30.8l0,56.7l36.1,-0.1z" class="st12"/>
    <path id="svg_5" fill="#FFFFFF" d="m82.4,107.5l36.1,0l0,116.4l-36.1,0l0,-116.4z" class="st12"/>
    <path id="svg_6" fill="#FFFFFF" d="m100.5,49.5c-11.6,0 -20.9,9.4 -20.9,20.9s9.4,21.1 20.9,21.1s20.9,-9.6 20.9,-21.1c0,-11.5 -9.4,-20.9 -20.9,-20.9z" class="st12"/>
   </g>
  </g>
  <g stroke="null">
   <g stroke="null">
    <title stroke="null">Layer 1</title>
    <g stroke="null" id="svg_7">
     <g stroke="null">
      <path stroke="null" class="st16" d="m8.49537,88.15626c0,0 2.75285,-72.08391 81.97379,-69.73889s212.68324,-0.81566 226.03966,78.0994c13.45838,78.91506 -85.84817,227.26315 -166.08868,226.95728c-69.12715,-0.20391 -146.20698,-128.36443 -141.92477,-235.31779l0,0z" fill="#191919"/>
      <g stroke="null">
       <g stroke="null">
        <path stroke="null" class="st12" d="m144.09878,106.5086c-4.58809,-2.75285 -10.39966,0.61174 -10.39966,5.91353l0,64.23319c0,5.40375 5.81157,8.66638 10.39966,5.91353l53.83353,-32.1166c4.48613,-2.65089 4.48613,-9.17617 0,-11.82706l-53.83353,-32.1166zm3.3646,58.01379l0,-39.96732l33.544,19.98366l-33.544,19.98366z" fill="#191919"/>
        <path stroke="null" class="st12" d="m235.55461,64.40018c-42.72017,-6.32136 -102.36528,-6.32136 -145.08545,0c-17.12885,2.54894 -30.58723,15.90536 -33.44204,33.34008c-5.5057,32.32051 -5.5057,61.17447 0,93.49498c2.95677,17.43472 16.41515,30.79115 33.44204,33.34008c21.41106,3.16068 47.00238,4.792 72.5937,4.792c25.59132,0 51.08068,-1.52936 72.49174,-4.792c17.02689,-2.54894 30.48528,-15.90536 33.44204,-33.34008c5.5057,-32.32051 5.5057,-61.17447 0,-93.49498c-2.85481,-17.33277 -16.31319,-30.79115 -33.44204,-33.34008l0,0zm19.98366,124.592c-1.93719,11.52119 -10.80749,20.39149 -21.92085,22.02281c-41.49668,6.11745 -99.40851,6.11745 -141.00715,0c-11.21532,-1.63132 -19.98366,-10.50162 -21.92085,-22.02281c-5.30179,-31.09702 -5.30179,-57.70791 0,-88.90689c1.93719,-11.52119 10.80749,-20.39149 21.92085,-22.02281c20.79932,-3.05872 45.67694,-4.58809 70.4526,-4.58809c24.87762,0 49.75523,1.52936 70.55455,4.58809c11.21532,1.63132 19.98366,10.50162 21.92085,22.02281c5.19983,31.19898 5.19983,57.70791 0,88.90689l0,0z" fill="#191919"/>
       </g>
      </g>
     </g>
     <rect stroke="null" fill="#191919" x="50.545" y="53.31392" width="227.13408" height="160.28764" id="svg_9"/>
     <rect stroke="null" fill="#191919" x="62.04546" y="190.60065" width="203.41438" height="50.31451" id="svg_8"/>
     <g stroke="null" fill="#FFFFFF">
      <path stroke="null" d="m240.93842,59.78293l-158.68422,0c-13.48816,0 -23.80263,10.31447 -23.80263,23.80263l0,111.07896c0,13.48816 10.31447,23.80263 23.80263,23.80263l158.68422,0c13.48816,0 23.80263,-10.31447 23.80263,-23.80263l0,-111.07896c0,-13.48816 -10.31447,-23.80263 -23.80263,-23.80263zm-10.31447,112.6658c3.17369,3.17369 3.96711,7.93421 0.79342,11.1079c-1.58684,2.38026 -3.96711,3.17369 -6.34737,3.17369c-1.58684,0 -3.96711,-0.79342 -5.55395,-1.58684l-40.46448,-34.91053l-12.69474,11.1079c-0.79342,0.79342 -3.17369,1.58684 -4.76053,1.58684s-3.96711,-0.79342 -5.55395,-1.58684l-12.69474,-11.1079l-40.46448,34.91053c-0.79342,0.79342 -3.17369,1.58684 -4.76053,1.58684c-2.38026,0 -4.76053,-0.79342 -6.34737,-2.38026c-3.17369,-3.17369 -2.38026,-7.93421 0.79342,-11.1079l38.87763,-33.32369l-38.87763,-33.32369c-3.17369,-3.17369 -3.96711,-7.93421 -0.79342,-11.1079c3.17369,-3.17369 7.93421,-3.96711 11.1079,-0.79342l57.91974,50.77895l57.91974,-50.77895c3.17369,-3.17369 7.93421,-2.38026 11.1079,0.79342c3.17369,3.17369 2.38026,7.93421 -0.79342,11.1079l-37.29079,32.53027l38.87763,33.32369l0,0z"/>
     </g>
    </g>
   </g>
  </g>
 </g>
</svg>